<svg xmlns="http://www.w3.org/2000/svg" xmlns:xlink="http://www.w3.org/1999/xlink" version="1.1" data-diagram-type="CLASS" style="width:1280px;height:726px;background:#FFFFFF;" width="1280px" height="726px" viewBox="0 0 1280 726" zoomAndPan="magnify" preserveAspectRatio="none" contentStyleType="text/css"><?plantuml 1.2026.7beta11?><defs/><g font-family="sans-serif" lengthAdjust="spacing"><!--class client--><g class="entity" data-qualified-name="client" id="ent0001" data-source-line="21"><rect x="524.02" y="15.14" width="147.427" height="123.781" fill="#F1F1F1" style="stroke:#181818;stroke-width:0.5;" rx="2.5" ry="2.5"/><text x="578.507" y="33.135" fill="#000" font-size="14" textLength="38.452">client</text><line x1="525.02" y1="41.437" x2="670.447" y2="41.437" style="stroke:#181818;stroke-width:0.5;"/><text x="530.02" y="58.432" fill="#000" font-size="14" textLength="51.646">*id : int</text><line x1="525.02" y1="65.734" x2="670.447" y2="65.734" style="stroke:#181818;stroke-width:1;"/><text x="530.02" y="82.729" fill="#000" font-size="14" textLength="135.427">full_name : varchar</text><text x="530.02" y="99.026" fill="#000" font-size="14" textLength="110.954">phone : varchar</text><text x="530.02" y="115.323" fill="#000" font-size="14" textLength="105.752">email : varchar</text><text x="530.02" y="131.619" fill="#000" font-size="14" textLength="110.161">status : varchar</text></g><!--class company--><g class="entity" data-qualified-name="company" id="ent0002" data-source-line="30"><rect x="112.31" y="31.44" width="118.846" height="91.188" fill="#F1F1F1" style="stroke:#181818;stroke-width:0.5;" rx="2.5" ry="2.5"/><text x="139.471" y="49.435" fill="#000" font-size="14" textLength="64.524">company</text><line x1="113.31" y1="57.737" x2="230.156" y2="57.737" style="stroke:#181818;stroke-width:0.5;"/><text x="118.31" y="74.732" fill="#000" font-size="14" textLength="51.646">*id : int</text><line x1="113.31" y1="82.034" x2="230.156" y2="82.034" style="stroke:#181818;stroke-width:1;"/><text x="118.31" y="99.029" fill="#000" font-size="14" textLength="106.846">name : varchar</text><text x="118.31" y="115.326" fill="#000" font-size="14" textLength="88.778">inn : varchar</text></g><!--class mtype--><g class="entity" data-qualified-name="mtype" id="ent0003" data-source-line="38"><rect x="266.59" y="7" width="196.276" height="140.078" fill="#F1F1F1" style="stroke:#181818;stroke-width:0.5;" rx="2.5" ry="2.5"/><text x="301.547" y="24.995" fill="#000" font-size="14" textLength="126.362">membership_type</text><line x1="267.59" y1="33.297" x2="461.866" y2="33.297" style="stroke:#181818;stroke-width:0.5;"/><text x="272.59" y="50.292" fill="#000" font-size="14" textLength="51.646">*id : int</text><line x1="267.59" y1="57.594" x2="461.866" y2="57.594" style="stroke:#181818;stroke-width:1;"/><text x="272.59" y="74.589" fill="#000" font-size="14" textLength="106.846">name : varchar</text><text x="272.59" y="90.886" fill="#000" font-size="14" textLength="103.653">price : decimal</text><text x="272.59" y="107.183" fill="#000" font-size="14" textLength="98.513">visit_limit : int</text><text x="272.59" y="123.479" fill="#000" font-size="14" textLength="135.728">time_limit_to : time</text><text x="272.59" y="139.776" fill="#000" font-size="14" textLength="184.276">freeze_days_per_year : int</text></g><!--class memb--><g class="entity" data-qualified-name="memb" id="ent0004" data-source-line="49"><rect x="241.86" y="207.07" width="201.738" height="205.266" fill="#F1F1F1" style="stroke:#181818;stroke-width:0.5;" rx="2.5" ry="2.5"/><text x="298.685" y="225.065" fill="#000" font-size="14" textLength="88.088">membership</text><line x1="242.86" y1="233.367" x2="442.598" y2="233.367" style="stroke:#181818;stroke-width:0.5;"/><text x="247.86" y="250.362" fill="#000" font-size="14" textLength="51.646">*id : int</text><line x1="242.86" y1="257.664" x2="442.598" y2="257.664" style="stroke:#181818;stroke-width:1;"/><text x="247.86" y="274.659" fill="#000" font-size="14" textLength="101.828">#client_id : int</text><text x="247.86" y="290.956" fill="#000" font-size="14" textLength="127.9">#company_id : int</text><text x="247.86" y="307.253" fill="#000" font-size="14" textLength="189.738">#membership_type_id : int</text><text x="247.86" y="323.549" fill="#000" font-size="14" textLength="103.653">price : decimal</text><text x="247.86" y="339.846" fill="#000" font-size="14" textLength="98.513">visit_limit : int</text><text x="247.86" y="356.143" fill="#000" font-size="14" textLength="135.728">time_limit_to : time</text><text x="247.86" y="372.44" fill="#000" font-size="14" textLength="109.525">starts_on : date</text><text x="247.86" y="388.737" fill="#000" font-size="14" textLength="103.291">ends_on : date</text><text x="247.86" y="405.034" fill="#000" font-size="14" textLength="110.161">status : varchar</text></g><!--class freeze--><g class="entity" data-qualified-name="freeze" id="ent0005" data-source-line="63"><rect x="7" y="480.49" width="163.464" height="107.484" fill="#F1F1F1" style="stroke:#181818;stroke-width:0.5;" rx="2.5" ry="2.5"/><text x="40.997" y="498.485" fill="#000" font-size="14" textLength="95.471">freeze_period</text><line x1="8" y1="506.787" x2="169.464" y2="506.787" style="stroke:#181818;stroke-width:0.5;"/><text x="13" y="523.782" fill="#000" font-size="14" textLength="51.646">*id : int</text><line x1="8" y1="531.084" x2="169.464" y2="531.084" style="stroke:#181818;stroke-width:1;"/><text x="13" y="548.079" fill="#000" font-size="14" textLength="151.464">#membership_id : int</text><text x="13" y="564.376" fill="#000" font-size="14" textLength="109.525">starts_on : date</text><text x="13" y="580.673" fill="#000" font-size="14" textLength="103.291">ends_on : date</text></g><!--class visit--><g class="entity" data-qualified-name="visit" id="ent0006" data-source-line="72"><rect x="448.37" y="472.34" width="164.729" height="123.781" fill="#F1F1F1" style="stroke:#181818;stroke-width:0.5;" rx="2.5" ry="2.5"/><text x="516.31" y="490.335" fill="#000" font-size="14" textLength="28.848">visit</text><line x1="449.37" y1="498.637" x2="612.099" y2="498.637" style="stroke:#181818;stroke-width:0.5;"/><text x="454.37" y="515.632" fill="#000" font-size="14" textLength="51.646">*id : int</text><line x1="449.37" y1="522.934" x2="612.099" y2="522.934" style="stroke:#181818;stroke-width:1;"/><text x="454.37" y="539.929" fill="#000" font-size="14" textLength="101.828">#client_id : int</text><text x="454.37" y="556.226" fill="#000" font-size="14" textLength="151.464">#membership_id : int</text><text x="454.37" y="572.523" fill="#000" font-size="14" textLength="152.729">entered_at : datetime</text><text x="454.37" y="588.819" fill="#000" font-size="14" textLength="120.805">left_at : datetime</text></g><!--class trainer--><g class="entity" data-qualified-name="trainer" id="ent0007" data-source-line="83"><rect x="880.02" y="31.44" width="147.427" height="91.188" fill="#F1F1F1" style="stroke:#181818;stroke-width:0.5;" rx="2.5" ry="2.5"/><text x="930.255" y="49.435" fill="#000" font-size="14" textLength="46.956">trainer</text><line x1="881.02" y1="57.737" x2="1026.447" y2="57.737" style="stroke:#181818;stroke-width:0.5;"/><text x="886.02" y="74.732" fill="#000" font-size="14" textLength="51.646">*id : int</text><line x1="881.02" y1="82.034" x2="1026.447" y2="82.034" style="stroke:#181818;stroke-width:1;"/><text x="886.02" y="99.029" fill="#000" font-size="14" textLength="135.427">full_name : varchar</text><text x="886.02" y="115.326" fill="#000" font-size="14" textLength="110.161">status : varchar</text></g><!--class wtype--><g class="entity" data-qualified-name="wtype" id="ent0008" data-source-line="90"><rect x="1071.31" y="39.59" width="118.846" height="74.891" fill="#F1F1F1" style="stroke:#181818;stroke-width:0.5;" rx="2.5" ry="2.5"/><text x="1083.192" y="57.585" fill="#000" font-size="14" textLength="95.081">workout_type</text><line x1="1072.31" y1="65.887" x2="1189.156" y2="65.887" style="stroke:#181818;stroke-width:0.5;"/><text x="1077.31" y="82.882" fill="#000" font-size="14" textLength="51.646">*id : int</text><line x1="1072.31" y1="90.184" x2="1189.156" y2="90.184" style="stroke:#181818;stroke-width:1;"/><text x="1077.31" y="107.179" fill="#000" font-size="14" textLength="106.846">name : varchar</text></g><!--class twt--><g class="entity" data-qualified-name="twt" id="ent0009" data-source-line="97"><rect x="1059.5" y="264.11" width="170.457" height="91.188" fill="#F1F1F1" style="stroke:#181818;stroke-width:0.5;" rx="2.5" ry="2.5"/><text x="1070.21" y="282.105" fill="#000" font-size="14" textLength="149.037">trainer_workout_type</text><line x1="1060.5" y1="290.407" x2="1228.957" y2="290.407" style="stroke:#181818;stroke-width:0.5;"/><text x="1065.5" y="307.402" fill="#000" font-size="14" textLength="51.646">*id : int</text><line x1="1060.5" y1="314.704" x2="1228.957" y2="314.704" style="stroke:#181818;stroke-width:1;"/><text x="1065.5" y="331.699" fill="#000" font-size="14" textLength="110.332">#trainer_id : int</text><text x="1065.5" y="347.996" fill="#000" font-size="14" textLength="158.457">#workout_type_id : int</text></g><!--class hall--><g class="entity" data-qualified-name="hall" id="ent0010" data-source-line="104"><rect x="726.31" y="23.29" width="118.846" height="107.484" fill="#F1F1F1" style="stroke:#181818;stroke-width:0.5;" rx="2.5" ry="2.5"/><text x="773.117" y="41.285" fill="#000" font-size="14" textLength="25.231">hall</text><line x1="727.31" y1="49.587" x2="844.156" y2="49.587" style="stroke:#181818;stroke-width:0.5;"/><text x="732.31" y="66.582" fill="#000" font-size="14" textLength="51.646">*id : int</text><line x1="727.31" y1="73.884" x2="844.156" y2="73.884" style="stroke:#181818;stroke-width:1;"/><text x="732.31" y="90.879" fill="#000" font-size="14" textLength="80.992">club_id : int</text><text x="732.31" y="107.176" fill="#000" font-size="14" textLength="106.846">name : varchar</text><text x="732.31" y="123.473" fill="#000" font-size="14" textLength="90.973">capacity : int</text></g><!--class workout--><g class="entity" data-qualified-name="workout" id="ent0011" data-source-line="113"><rect x="854.5" y="231.52" width="170.457" height="156.375" fill="#F1F1F1" style="stroke:#181818;stroke-width:0.5;" rx="2.5" ry="2.5"/><text x="911.325" y="249.515" fill="#000" font-size="14" textLength="56.807">workout</text><line x1="855.5" y1="257.817" x2="1023.957" y2="257.817" style="stroke:#181818;stroke-width:0.5;"/><text x="860.5" y="274.812" fill="#000" font-size="14" textLength="51.646">*id : int</text><line x1="855.5" y1="282.114" x2="1023.957" y2="282.114" style="stroke:#181818;stroke-width:1;"/><text x="860.5" y="299.109" fill="#000" font-size="14" textLength="158.457">#workout_type_id : int</text><text x="860.5" y="315.406" fill="#000" font-size="14" textLength="110.332">#trainer_id : int</text><text x="860.5" y="331.703" fill="#000" font-size="14" textLength="88.607">#hall_id : int</text><text x="860.5" y="347.999" fill="#000" font-size="14" textLength="137.785">starts_at : datetime</text><text x="860.5" y="364.296" fill="#000" font-size="14" textLength="90.973">capacity : int</text><text x="860.5" y="380.593" fill="#000" font-size="14" textLength="110.161">status : varchar</text></g><!--class booking--><g class="entity" data-qualified-name="booking" id="ent0012" data-source-line="125"><rect x="647.97" y="472.34" width="163.519" height="123.781" fill="#F1F1F1" style="stroke:#181818;stroke-width:0.5;" rx="2.5" ry="2.5"/><text x="701.842" y="490.335" fill="#000" font-size="14" textLength="55.774">booking</text><line x1="648.97" y1="498.637" x2="810.489" y2="498.637" style="stroke:#181818;stroke-width:0.5;"/><text x="653.97" y="515.632" fill="#000" font-size="14" textLength="51.646">*id : int</text><line x1="648.97" y1="522.934" x2="810.489" y2="522.934" style="stroke:#181818;stroke-width:1;"/><text x="653.97" y="539.929" fill="#000" font-size="14" textLength="120.183">#workout_id : int</text><text x="653.97" y="556.226" fill="#000" font-size="14" textLength="101.828">#client_id : int</text><text x="653.97" y="572.523" fill="#000" font-size="14" textLength="110.161">status : varchar</text><text x="653.97" y="588.819" fill="#000" font-size="14" textLength="151.519">created_at : datetime</text></g><!--class pack--><g class="entity" data-qualified-name="pack" id="ent0013" data-source-line="136"><rect x="675.91" y="239.67" width="143.653" height="140.078" fill="#F1F1F1" style="stroke:#181818;stroke-width:0.5;" rx="2.5" ry="2.5"/><text x="684.333" y="257.665" fill="#000" font-size="14" textLength="126.807">personal_package</text><line x1="676.91" y1="265.967" x2="818.563" y2="265.967" style="stroke:#181818;stroke-width:0.5;"/><text x="681.91" y="282.962" fill="#000" font-size="14" textLength="51.646">*id : int</text><line x1="676.91" y1="290.264" x2="818.563" y2="290.264" style="stroke:#181818;stroke-width:1;"/><text x="681.91" y="307.259" fill="#000" font-size="14" textLength="101.828">#client_id : int</text><text x="681.91" y="323.556" fill="#000" font-size="14" textLength="110.332">#trainer_id : int</text><text x="681.91" y="339.853" fill="#000" font-size="14" textLength="129.999">sessions_total : int</text><text x="681.91" y="356.149" fill="#000" font-size="14" textLength="131.653">sessions_used : int</text><text x="681.91" y="372.446" fill="#000" font-size="14" textLength="103.653">price : decimal</text></g><!--class slot--><g class="entity" data-qualified-name="slot" id="ent0014" data-source-line="146"><rect x="846.84" y="472.34" width="149.785" height="123.781" fill="#F1F1F1" style="stroke:#181818;stroke-width:0.5;" rx="2.5" ry="2.5"/><text x="875.385" y="490.335" fill="#000" font-size="14" textLength="92.695">personal_slot</text><line x1="847.84" y1="498.637" x2="995.625" y2="498.637" style="stroke:#181818;stroke-width:0.5;"/><text x="852.84" y="515.632" fill="#000" font-size="14" textLength="51.646">*id : int</text><line x1="847.84" y1="522.934" x2="995.625" y2="522.934" style="stroke:#181818;stroke-width:1;"/><text x="852.84" y="539.929" fill="#000" font-size="14" textLength="122.726">#package_id : int</text><text x="852.84" y="556.226" fill="#000" font-size="14" textLength="110.332">#trainer_id : int</text><text x="852.84" y="572.523" fill="#000" font-size="14" textLength="137.785">starts_at : datetime</text><text x="852.84" y="588.819" fill="#000" font-size="14" textLength="110.161">status : varchar</text></g><g class="entity" data-qualified-name="GMN31" id="ent0032" data-source-line="177"><path d="M205.65,506.53 L205.65,561.928 A0,0 0 0 0 205.65,561.928 L413.817,561.928 A0,0 0 0 0 413.817,561.928 L413.817,516.53 L403.817,506.53 L360.5,506.53 L356.5,412.77 L352.5,506.53 L205.65,506.53 A0,0 0 0 0 205.65,506.53" style="stroke:#181818;stroke-width:0.5;" fill="#FEFFDD"/><path d="M403.817,506.53 L403.817,516.53 L413.817,516.53 L403.817,506.53" style="stroke:#181818;stroke-width:0.5;" fill="#FEFFDD"/><text x="211.65" y="523.597" fill="#000" font-size="13" textLength="168.137">Снимок цены и условий:</text><text x="211.65" y="538.73" fill="#000" font-size="13" textLength="162.202">тариф потом меняется,</text><text x="211.65" y="553.863" fill="#000" font-size="13" textLength="187.167">а карта живёт по прежним</text></g><g class="entity" data-qualified-name="GMN34" id="ent0035" data-source-line="183"><path d="M1031.82,506.53 L1031.82,561.928 A0,0 0 0 0 1031.82,561.928 L1265.644,561.928 A0,0 0 0 0 1265.644,561.928 L1265.644,516.53 L1255.644,506.53 L1148.73,506.53 L1144.73,355.68 L1140.73,506.53 L1031.82,506.53 A0,0 0 0 0 1031.82,506.53" style="stroke:#181818;stroke-width:0.5;" fill="#FEFFDD"/><path d="M1255.644,506.53 L1255.644,516.53 L1265.644,516.53 L1255.644,506.53" style="stroke:#181818;stroke-width:0.5;" fill="#FEFFDD"/><text x="1037.82" y="523.597" fill="#000" font-size="13" textLength="170.022">Связь M:N: тренер ведёт</text><text x="1037.82" y="538.73" fill="#000" font-size="13" textLength="120.206">несколько видов,</text><text x="1037.82" y="553.863" fill="#000" font-size="13" textLength="212.824">вид ведут несколько тренеров</text></g><g class="entity" data-qualified-name="GMN37" id="ent0038" data-source-line="189"><path d="M816.19,656.12 L816.19,711.518 A0,0 0 0 0 816.19,711.518 L1027.271,711.518 A0,0 0 0 0 1027.271,711.518 L1027.271,666.12 L1017.271,656.12 L925.73,656.12 L921.73,596.37 L917.73,656.12 L816.19,656.12 A0,0 0 0 0 816.19,656.12" style="stroke:#181818;stroke-width:0.5;" fill="#FEFFDD"/><path d="M1017.271,656.12 L1017.271,666.12 L1027.271,666.12 L1017.271,656.12" style="stroke:#181818;stroke-width:0.5;" fill="#FEFFDD"/><text x="822.19" y="673.187" fill="#000" font-size="13" textLength="190.081">unique (trainer_id, starts_at):</text><text x="822.19" y="688.32" fill="#000" font-size="13" textLength="165.89">двойная продажа слота</text><text x="822.19" y="703.453" fill="#000" font-size="13" textLength="163.147">физически невозможна</text></g><!--link client to memb--><g class="link" data-entity-1="ent0001" data-entity-2="ent0004" id="lnk15" data-source-line="157" data-link-type="crowfoot"><path d="M553.71,147.12 C553.71,185.51 553.71,219.52 553.71,219.52 C553.71,219.52 516.04,219.52 461.9,219.52" style="stroke:#181818;stroke-width:1;" fill="none" id="client-memb" codeLine="157"/><line x1="549.71" y1="143.12" x2="557.71" y2="143.12" style="stroke:#181818;stroke-width:1;"/><line x1="549.71" y1="146.12" x2="557.71" y2="146.12" style="stroke:#181818;stroke-width:1;"/><line x1="553.71" y1="147.12" x2="553.71" y2="139.12" style="stroke:#181818;stroke-width:1;"/><line x1="451.9" y1="219.52" x2="443.9" y2="225.52" style="stroke:#181818;stroke-width:1;"/><line x1="451.9" y1="219.52" x2="443.9" y2="213.52" style="stroke:#181818;stroke-width:1;"/><line x1="451.9" y1="219.52" x2="443.9" y2="219.52" style="stroke:#181818;stroke-width:1;"/><ellipse cx="457.9" cy="219.52" rx="4" ry="4" fill="none" style="stroke:#181818;stroke-width:1;"/><text x="474.01" y="215.587" fill="#000" font-size="13" textLength="64.035">покупает</text></g><!--link company to memb--><g class="link" data-entity-1="ent0002" data-entity-2="ent0004" id="lnk16" data-source-line="158" data-link-type="crowfoot"><path d="M246.25,77.52 C259.26,77.52 254.23,77.52 254.23,77.52 C254.23,77.52 254.23,126.75 254.23,188.85" style="stroke:#181818;stroke-width:1;" fill="none" id="company-memb" codeLine="158"/><line x1="242.25" y1="77.52" x2="231.25" y2="77.52" style="stroke:#181818;stroke-width:1;"/><ellipse cx="242.25" cy="77.52" rx="4" ry="4" fill="none" style="stroke:#181818;stroke-width:1;"/><line x1="235.25" y1="81.52" x2="235.25" y2="73.52" style="stroke:#181818;stroke-width:1;"/><line x1="254.23" y1="198.85" x2="260.23" y2="206.85" style="stroke:#181818;stroke-width:1;"/><line x1="254.23" y1="198.85" x2="248.23" y2="206.85" style="stroke:#181818;stroke-width:1;"/><line x1="254.23" y1="198.85" x2="254.23" y2="206.85" style="stroke:#181818;stroke-width:1;"/><ellipse cx="254.23" cy="192.85" rx="4" ry="4" fill="none" style="stroke:#181818;stroke-width:1;"/><text x="173.23" y="143.767" fill="#000" font-size="13" textLength="80.057">оплачивает</text></g><!--link mtype to memb--><g class="link" data-entity-1="ent0003" data-entity-2="ent0004" id="lnk17" data-source-line="159" data-link-type="crowfoot"><path d="M355.1,155.48 C355.1,174.2 355.1,168.82 355.1,188.89" style="stroke:#181818;stroke-width:1;" fill="none" id="mtype-memb" codeLine="159"/><line x1="351.1" y1="151.48" x2="359.1" y2="151.48" style="stroke:#181818;stroke-width:1;"/><line x1="351.1" y1="154.48" x2="359.1" y2="154.48" style="stroke:#181818;stroke-width:1;"/><line x1="355.1" y1="155.48" x2="355.1" y2="147.48" style="stroke:#181818;stroke-width:1;"/><line x1="355.1" y1="198.89" x2="361.1" y2="206.89" style="stroke:#181818;stroke-width:1;"/><line x1="355.1" y1="198.89" x2="349.1" y2="206.89" style="stroke:#181818;stroke-width:1;"/><line x1="355.1" y1="198.89" x2="355.1" y2="206.89" style="stroke:#181818;stroke-width:1;"/><ellipse cx="355.1" cy="192.89" rx="4" ry="4" fill="none" style="stroke:#181818;stroke-width:1;"/><text x="283.1" y="173.247" fill="#000" font-size="13" textLength="71.633">по тарифу</text></g><!--link memb to freeze--><g class="link" data-entity-1="ent0004" data-entity-2="ent0005" id="lnk18" data-source-line="160" data-link-type="crowfoot"><path d="M299.18,420.63 C299.18,462.63 299.18,493.52 299.18,493.52 C299.18,493.52 247.79,493.52 188.7,493.52" style="stroke:#181818;stroke-width:1;" fill="none" id="memb-freeze" codeLine="160"/><line x1="295.18" y1="416.63" x2="303.18" y2="416.63" style="stroke:#181818;stroke-width:1;"/><line x1="295.18" y1="419.63" x2="303.18" y2="419.63" style="stroke:#181818;stroke-width:1;"/><line x1="299.18" y1="420.63" x2="299.18" y2="412.63" style="stroke:#181818;stroke-width:1;"/><line x1="178.7" y1="493.52" x2="170.7" y2="499.52" style="stroke:#181818;stroke-width:1;"/><line x1="178.7" y1="493.52" x2="170.7" y2="487.52" style="stroke:#181818;stroke-width:1;"/><line x1="178.7" y1="493.52" x2="170.7" y2="493.52" style="stroke:#181818;stroke-width:1;"/><ellipse cx="184.7" cy="493.52" rx="4" ry="4" fill="none" style="stroke:#181818;stroke-width:1;"/><text x="276.38" y="489.587" fill="#000" font-size="13" textLength="115.185">замораживается</text></g><!--link client to visit--><g class="link" data-entity-1="ent0001" data-entity-2="ent0006" id="lnk19" data-source-line="161" data-link-type="crowfoot"><path d="M583.4,147.17 C583.4,234.46 583.4,366.46 583.4,453.87" style="stroke:#181818;stroke-width:1;" fill="none" id="client-visit" codeLine="161"/><line x1="579.4" y1="143.17" x2="587.4" y2="143.17" style="stroke:#181818;stroke-width:1;"/><line x1="579.4" y1="146.17" x2="587.4" y2="146.17" style="stroke:#181818;stroke-width:1;"/><line x1="583.4" y1="147.17" x2="583.4" y2="139.17" style="stroke:#181818;stroke-width:1;"/><line x1="583.4" y1="463.87" x2="589.4" y2="471.87" style="stroke:#181818;stroke-width:1;"/><line x1="583.4" y1="463.87" x2="577.4" y2="471.87" style="stroke:#181818;stroke-width:1;"/><line x1="583.4" y1="463.87" x2="583.4" y2="471.87" style="stroke:#181818;stroke-width:1;"/><ellipse cx="583.4" cy="457.87" rx="4" ry="4" fill="none" style="stroke:#181818;stroke-width:1;"/><text x="517.4" y="301.587" fill="#000" font-size="13" textLength="65.362">проходит</text></g><!--link memb to visit--><g class="link" data-entity-1="ent0004" data-entity-2="ent0006" id="lnk20" data-source-line="162" data-link-type="crowfoot"><path d="M428.71,420.5 C428.71,454.83 428.71,476.52 428.71,476.52 C428.71,476.52 418.56,476.52 429.9,476.52" style="stroke:#181818;stroke-width:1;" fill="none" id="memb-visit" codeLine="162"/><line x1="424.71" y1="416.5" x2="432.71" y2="416.5" style="stroke:#181818;stroke-width:1;"/><line x1="424.71" y1="419.5" x2="432.71" y2="419.5" style="stroke:#181818;stroke-width:1;"/><line x1="428.71" y1="420.5" x2="428.71" y2="412.5" style="stroke:#181818;stroke-width:1;"/><line x1="439.9" y1="476.52" x2="447.9" y2="470.52" style="stroke:#181818;stroke-width:1;"/><line x1="439.9" y1="476.52" x2="447.9" y2="482.52" style="stroke:#181818;stroke-width:1;"/><line x1="439.9" y1="476.52" x2="447.9" y2="476.52" style="stroke:#181818;stroke-width:1;"/><ellipse cx="433.9" cy="476.52" rx="4" ry="4" fill="none" style="stroke:#181818;stroke-width:1;"/><text x="355.71" y="450.177" fill="#000" font-size="13" textLength="72.706">списывает</text></g><!--link trainer to twt--><g class="link" data-entity-1="ent0007" data-entity-2="ent0009" id="lnk21" data-source-line="164" data-link-type="crowfoot"><path d="M1035.91,119.52 C1056.54,119.52 1065.41,119.52 1065.41,119.52 C1065.41,119.52 1065.41,189.38 1065.41,245.67" style="stroke:#181818;stroke-width:1;" fill="none" id="trainer-twt" codeLine="164"/><line x1="1031.91" y1="123.52" x2="1031.91" y2="115.52" style="stroke:#181818;stroke-width:1;"/><line x1="1034.91" y1="123.52" x2="1034.91" y2="115.52" style="stroke:#181818;stroke-width:1;"/><line x1="1035.91" y1="119.52" x2="1027.91" y2="119.52" style="stroke:#181818;stroke-width:1;"/><line x1="1065.41" y1="255.67" x2="1071.41" y2="263.67" style="stroke:#181818;stroke-width:1;"/><line x1="1065.41" y1="255.67" x2="1059.41" y2="263.67" style="stroke:#181818;stroke-width:1;"/><line x1="1065.41" y1="255.67" x2="1065.41" y2="263.67" style="stroke:#181818;stroke-width:1;"/><ellipse cx="1065.41" cy="249.67" rx="4" ry="4" fill="none" style="stroke:#181818;stroke-width:1;"/></g><!--link wtype to twt--><g class="link" data-entity-1="ent0008" data-entity-2="ent0009" id="lnk22" data-source-line="165" data-link-type="crowfoot"><path d="M1150.54,122.94 C1150.54,163.63 1150.54,202.28 1150.54,245.82" style="stroke:#181818;stroke-width:1;" fill="none" id="wtype-twt" codeLine="165"/><line x1="1146.54" y1="118.94" x2="1154.54" y2="118.94" style="stroke:#181818;stroke-width:1;"/><line x1="1146.54" y1="121.94" x2="1154.54" y2="121.94" style="stroke:#181818;stroke-width:1;"/><line x1="1150.54" y1="122.94" x2="1150.54" y2="114.94" style="stroke:#181818;stroke-width:1;"/><line x1="1150.54" y1="255.82" x2="1156.54" y2="263.82" style="stroke:#181818;stroke-width:1;"/><line x1="1150.54" y1="255.82" x2="1144.54" y2="263.82" style="stroke:#181818;stroke-width:1;"/><line x1="1150.54" y1="255.82" x2="1150.54" y2="263.82" style="stroke:#181818;stroke-width:1;"/><ellipse cx="1150.54" cy="249.82" rx="4" ry="4" fill="none" style="stroke:#181818;stroke-width:1;"/></g><!--link wtype to workout--><g class="link" data-entity-1="ent0008" data-entity-2="ent0011" id="lnk23" data-source-line="166" data-link-type="crowfoot"><path d="M1110.92,122.67 C1110.92,173.15 1110.92,248.52 1110.92,248.52 C1110.92,248.52 1086.13,248.52 1043.33,248.52" style="stroke:#181818;stroke-width:1;" fill="none" id="wtype-workout" codeLine="166"/><line x1="1106.92" y1="118.67" x2="1114.92" y2="118.67" style="stroke:#181818;stroke-width:1;"/><line x1="1106.92" y1="121.67" x2="1114.92" y2="121.67" style="stroke:#181818;stroke-width:1;"/><line x1="1110.92" y1="122.67" x2="1110.92" y2="114.67" style="stroke:#181818;stroke-width:1;"/><line x1="1033.33" y1="248.52" x2="1025.33" y2="254.52" style="stroke:#181818;stroke-width:1;"/><line x1="1033.33" y1="248.52" x2="1025.33" y2="242.52" style="stroke:#181818;stroke-width:1;"/><line x1="1033.33" y1="248.52" x2="1025.33" y2="248.52" style="stroke:#181818;stroke-width:1;"/><ellipse cx="1039.33" cy="248.52" rx="4" ry="4" fill="none" style="stroke:#181818;stroke-width:1;"/><text x="1040.92" y="220.457" fill="#000" font-size="13" textLength="69.304">какой вид</text></g><!--link trainer to workout--><g class="link" data-entity-1="ent0007" data-entity-2="ent0011" id="lnk24" data-source-line="167" data-link-type="crowfoot"><path d="M952.49,131 C952.49,161.86 952.49,177.3 952.49,213.3" style="stroke:#181818;stroke-width:1;" fill="none" id="trainer-workout" codeLine="167"/><line x1="948.49" y1="127" x2="956.49" y2="127" style="stroke:#181818;stroke-width:1;"/><line x1="948.49" y1="130" x2="956.49" y2="130" style="stroke:#181818;stroke-width:1;"/><line x1="952.49" y1="131" x2="952.49" y2="123" style="stroke:#181818;stroke-width:1;"/><line x1="952.49" y1="223.3" x2="958.49" y2="231.3" style="stroke:#181818;stroke-width:1;"/><line x1="952.49" y1="223.3" x2="946.49" y2="231.3" style="stroke:#181818;stroke-width:1;"/><line x1="952.49" y1="223.3" x2="952.49" y2="231.3" style="stroke:#181818;stroke-width:1;"/><ellipse cx="952.49" cy="217.3" rx="4" ry="4" fill="none" style="stroke:#181818;stroke-width:1;"/><text x="884.49" y="173.217" fill="#000" font-size="13" textLength="67.729">кто ведёт</text></g><!--link hall to workout--><g class="link" data-entity-1="ent0010" data-entity-2="ent0011" id="lnk25" data-source-line="168" data-link-type="crowfoot"><path d="M832.36,139.03 C832.36,185.3 832.36,236.52 832.36,236.52 C832.36,236.52 823.33,236.52 836.09,236.52" style="stroke:#181818;stroke-width:1;" fill="none" id="hall-workout" codeLine="168"/><line x1="828.36" y1="135.03" x2="836.36" y2="135.03" style="stroke:#181818;stroke-width:1;"/><line x1="828.36" y1="138.03" x2="836.36" y2="138.03" style="stroke:#181818;stroke-width:1;"/><line x1="832.36" y1="139.03" x2="832.36" y2="131.03" style="stroke:#181818;stroke-width:1;"/><line x1="846.09" y1="236.52" x2="854.09" y2="230.52" style="stroke:#181818;stroke-width:1;"/><line x1="846.09" y1="236.52" x2="854.09" y2="242.52" style="stroke:#181818;stroke-width:1;"/><line x1="846.09" y1="236.52" x2="854.09" y2="236.52" style="stroke:#181818;stroke-width:1;"/><ellipse cx="840.09" cy="236.52" rx="4" ry="4" fill="none" style="stroke:#181818;stroke-width:1;"/><text x="808.36" y="207.707" fill="#000" font-size="13" textLength="23.816">где</text></g><!--link workout to booking--><g class="link" data-entity-1="ent0011" data-entity-2="ent0012" id="lnk26" data-source-line="169" data-link-type="crowfoot"><path d="M846.03,384.52 C793.28,384.52 743.7,384.52 743.7,384.52 C743.7,384.52 743.7,412.91 743.7,454.04" style="stroke:#181818;stroke-width:1;" fill="none" id="workout-booking" codeLine="169"/><line x1="850.03" y1="380.52" x2="850.03" y2="388.52" style="stroke:#181818;stroke-width:1;"/><line x1="847.03" y1="380.52" x2="847.03" y2="388.52" style="stroke:#181818;stroke-width:1;"/><line x1="846.03" y1="384.52" x2="854.03" y2="384.52" style="stroke:#181818;stroke-width:1;"/><line x1="743.7" y1="464.04" x2="749.7" y2="472.04" style="stroke:#181818;stroke-width:1;"/><line x1="743.7" y1="464.04" x2="737.7" y2="472.04" style="stroke:#181818;stroke-width:1;"/><line x1="743.7" y1="464.04" x2="743.7" y2="472.04" style="stroke:#181818;stroke-width:1;"/><ellipse cx="743.7" cy="458.04" rx="4" ry="4" fill="none" style="stroke:#181818;stroke-width:1;"/><text x="679.11" y="397.587" fill="#000" font-size="13" textLength="75.816">на занятие</text></g><!--link client to booking--><g class="link" data-entity-1="ent0001" data-entity-2="ent0012" id="lnk27" data-source-line="170" data-link-type="crowfoot"><path d="M659.71,147.17 C659.71,234.46 659.71,366.46 659.71,453.87" style="stroke:#181818;stroke-width:1;" fill="none" id="client-booking" codeLine="170"/><line x1="655.71" y1="143.17" x2="663.71" y2="143.17" style="stroke:#181818;stroke-width:1;"/><line x1="655.71" y1="146.17" x2="663.71" y2="146.17" style="stroke:#181818;stroke-width:1;"/><line x1="659.71" y1="147.17" x2="659.71" y2="139.17" style="stroke:#181818;stroke-width:1;"/><line x1="659.71" y1="463.87" x2="665.71" y2="471.87" style="stroke:#181818;stroke-width:1;"/><line x1="659.71" y1="463.87" x2="653.71" y2="471.87" style="stroke:#181818;stroke-width:1;"/><line x1="659.71" y1="463.87" x2="659.71" y2="471.87" style="stroke:#181818;stroke-width:1;"/><ellipse cx="659.71" cy="457.87" rx="4" ry="4" fill="none" style="stroke:#181818;stroke-width:1;"/><text x="563.71" y="318.587" fill="#000" font-size="13" textLength="95.405">записывается</text></g><!--link client to pack--><g class="link" data-entity-1="ent0001" data-entity-2="ent0013" id="lnk28" data-source-line="172" data-link-type="crowfoot"><path d="M679.76,135.52 C696.33,135.52 701.11,135.52 701.11,135.52 C701.11,135.52 701.11,173.02 701.11,221.36" style="stroke:#181818;stroke-width:1;" fill="none" id="client-pack" codeLine="172"/><line x1="675.76" y1="139.52" x2="675.76" y2="131.52" style="stroke:#181818;stroke-width:1;"/><line x1="678.76" y1="139.52" x2="678.76" y2="131.52" style="stroke:#181818;stroke-width:1;"/><line x1="679.76" y1="135.52" x2="671.76" y2="135.52" style="stroke:#181818;stroke-width:1;"/><line x1="701.11" y1="231.36" x2="707.11" y2="239.36" style="stroke:#181818;stroke-width:1;"/><line x1="701.11" y1="231.36" x2="695.11" y2="239.36" style="stroke:#181818;stroke-width:1;"/><line x1="701.11" y1="231.36" x2="701.11" y2="239.36" style="stroke:#181818;stroke-width:1;"/><ellipse cx="701.11" cy="225.36" rx="4" ry="4" fill="none" style="stroke:#181818;stroke-width:1;"/><text x="636.11" y="168.837" fill="#000" font-size="13" textLength="64.035">покупает</text></g><!--link trainer to pack--><g class="link" data-entity-1="ent0007" data-entity-2="ent0013" id="lnk29" data-source-line="173" data-link-type="crowfoot"><path d="M871.57,77.52 C854.58,77.52 849.39,77.52 849.39,77.52 C849.39,77.52 849.39,286.52 849.39,286.52 C849.39,286.52 854.55,286.52 837.99,286.52" style="stroke:#181818;stroke-width:1;" fill="none" id="trainer-pack" codeLine="173"/><line x1="875.57" y1="73.52" x2="875.57" y2="81.52" style="stroke:#181818;stroke-width:1;"/><line x1="872.57" y1="73.52" x2="872.57" y2="81.52" style="stroke:#181818;stroke-width:1;"/><line x1="871.57" y1="77.52" x2="879.57" y2="77.52" style="stroke:#181818;stroke-width:1;"/><line x1="827.99" y1="286.52" x2="819.99" y2="292.52" style="stroke:#181818;stroke-width:1;"/><line x1="827.99" y1="286.52" x2="819.99" y2="280.52" style="stroke:#181818;stroke-width:1;"/><line x1="827.99" y1="286.52" x2="819.99" y2="286.52" style="stroke:#181818;stroke-width:1;"/><ellipse cx="833.99" cy="286.52" rx="4" ry="4" fill="none" style="stroke:#181818;stroke-width:1;"/><text x="780.39" y="177.697" fill="#000" font-size="13" textLength="68.364">у тренера</text></g><!--link pack to slot--><g class="link" data-entity-1="ent0013" data-entity-2="ent0014" id="lnk30" data-source-line="174" data-link-type="crowfoot"><path d="M827.83,333.52 C845.75,333.52 851.95,333.52 851.95,333.52 C851.95,333.52 851.95,395.15 851.95,454.1" style="stroke:#181818;stroke-width:1;" fill="none" id="pack-slot" codeLine="174"/><line x1="823.83" y1="337.52" x2="823.83" y2="329.52" style="stroke:#181818;stroke-width:1;"/><line x1="826.83" y1="337.52" x2="826.83" y2="329.52" style="stroke:#181818;stroke-width:1;"/><line x1="827.83" y1="333.52" x2="819.83" y2="333.52" style="stroke:#181818;stroke-width:1;"/><line x1="851.95" y1="464.1" x2="857.95" y2="472.1" style="stroke:#181818;stroke-width:1;"/><line x1="851.95" y1="464.1" x2="845.95" y2="472.1" style="stroke:#181818;stroke-width:1;"/><line x1="851.95" y1="464.1" x2="851.95" y2="472.1" style="stroke:#181818;stroke-width:1;"/><ellipse cx="851.95" cy="458.1" rx="4" ry="4" fill="none" style="stroke:#181818;stroke-width:1;"/><text x="764.95" y="399.817" fill="#000" font-size="13" textLength="86.233">расходуется</text></g><?plantuml-src fLXRRnD757xthnYPXq0XjC-MUAYgLgfKgagepzR4dk1LrZlkxXWtNAIGGAa4QbBA9U8I0ghK1wWm1XEJYv7u1RD_eR-atpcpQ-_QNa94fDWpPywS-SvrpdXEdFcClzASi8_iqBwnVRiNtn8OTEs1FOXlnjT5VDNsunNRimECkYA-Xi4gLllnrNcx2_ur-mhq3y_jttO8ndtR_R174XzZkcgxyM_Oi2w-2NLdBXBVQMqW4dnz-mRVgn3SnPw1-CcNWVdvx0-dQUzjks7lGS9MHU2C8HZsiU60vQtOWNqdR6-qGm1DDxu1Chw1QnLort68mEmzGE0KR1e2UPTaFxDRzg5zOH_OBPAIRExQFTiNAIyE7PmMO2auca4TGBNy5Zvqbos9ZNHOBxvfT_3VSyZ4kUN0o5_5js6eGz9KYCkNXVXlvOvW6JsW6GeM06tSkdRhjEAyCm3KmOX978TVUl4wZhb5J7qilA8fyAuwXvAA9rYOlbGWR9yfh-sGsRuG2TiiKKCeJNObWp7tiPIxns7nEpxPJ1GSVyGtmFDPmLbgU7KbQbvOyrKfMlA2bWnbK_XUeCnoImaTceREBDHy6KLV6nDw2ssZlg_fu9ntKOclCYnHGzPrnmlEYqNfHwfK194YuA7Tj7SHYi_iSs4tXRt3inVsBqmA0Al0U6PPb6k-Xs5Po4YueRXK8kDwTL4HNc0mcP_7nsBRzwk1R2gGByYmrf0XgAs63l8KrPIUdwD4Hffsb25ToPokcoqPBBlZtRZW_AcZlI38oqGaFxLFx3RIyZRIvnzOODC-g526xIByroXzN9mXyxXMh7Ao7535I387-OS07y5hgkQ22gE6rwgI6nbcantwYI1ReLSZIbtLlARqGRdWHPwf-bxJCwEzncigHweQ3IhDoUIXKXTLjIwNesfBXTLb9SDaZrFtNxZ-Fbpz26e_j2_jDbKYAFgUmfwAerDrbtGZ3QbE3kc3Wd_V5IqHhu6mntcDZ9YXkjCQqmAbZoM1Kyqi74kzcITEs3Ex-5cMGeY59gfgYeYwD4HIGJrF-5WO9fQ6aJrTPtqTfL3ZZ2APnSDXEB_TWyrN-2BO4nIPF1d07ttoqWWL6u3HyEX8vfyD46mgLFMgD0cWn7w-MZGJn2iVAJYKOfHgc_ZSu3IxosNdFcQEUcZPCQ54RGnPksHyfCBpCMzsTBYassQSifrFJrdde6suPeVkVrmKVVODtQ7k1iDDX3uYlOkmGXt6S3v3sKTlCQ5dTGgJwHGxDDsKysXMmdWbetP3-ZwBfa61x9hVNiYAdR9hJRPaZSHbwynzQhNYTGGd6s85zUGgYWmtMsGT59apN57j6t5IS5djypMxWYdTp8ZpazHd47q_Nf_qb7EI6nSQPRR-XUOY8yp8pSd8dz1tTc3D9TIAMD1wITN5bq8QWzJcOKq6DUNxF0vqDMhepaX1uiSLpWecuqCLp9VHgToU0WWbGWMDwaV8u2UuDRQHfrl8tWtkD1_RvvJ5pq2-ooczZSNRk60EJMLKpKW7qg_2aalol0jl6X-fOCrmOgIYoDD1X59lf3zDRaUg-FwuCWDWv6iNQpGeH9UeSJYysH4rEu0A_F0K9dw9_2eqSjAJKGi-Fu_EcE_XYYXpS-lkUcxQowMqVK8pdkSSSZ_W7X-zbDjrCRFbPhgXU0sij9HXJQv6OjxXTn6zgBhsxLWylMtAKz3T9SPdy5FdkdiTC9g98qQiQPqPlqxAfL9wNwJSAAMbpeG-isXfXI48kzGL0i2xf6wLfwJck66H8N7IW_1F0i4rja3sQtgabaifAML9yvzOgETawutAwhIzilmx_4pC6S8PUMeN9zxC09bKCEMCrt8bstRB9LxAQCVvGgnS-ftd87gC8j160R0nkYdq8aSJKW7XxJfD817q4ANdkg0dQAxdh81r77ByRYDxepTDdhNhwKcdI6Wtsz6wi2EVy3x1iTK7bGz62QWBmZQ5aEA30QQlqhEL7olvgsliRkBa7nCuPEWHiUl2OS2Fw1x3SjTViccDy4nloTdPFJGAy9758RKTUB-qbJW-BZ-dndNd11aE27eKnscppxd5FuwyTGt_dlk9Wsny3H3Hlw0IE603znQd_Jli9J9RTmJgVm00?></g></svg>